<svg viewBox="0 0 1200 800" xmlns="http://www.w3.org/2000/svg" role="img" aria-hidden="true">
  <defs>
    <linearGradient id="bg-auto-parts-sales-growth-and-customer-retention" x1="0%" y1="0%" x2="100%" y2="100%" gradientTransform="rotate(51 0.5 0.5)">
      <stop offset="0%" stop-color="#0b1226"/>
      <stop offset="100%" stop-color="#1e3a8a"/>
    </linearGradient>
    <radialGradient id="glow-auto-parts-sales-growth-and-customer-retention" cx="50%" cy="50%" r="55%">
      <stop offset="0%" stop-color="#38bdf8" stop-opacity="0.55"/>
      <stop offset="55%" stop-color="#22d3ee" stop-opacity="0.14"/>
      <stop offset="100%" stop-color="#22d3ee" stop-opacity="0"/>
    </radialGradient>
    
  </defs>
  <rect width="1200" height="800" fill="url(#bg-auto-parts-sales-growth-and-customer-retention)"/>
  <circle cx="600" cy="380" r="330" fill="url(#glow-auto-parts-sales-growth-and-customer-retention)"/>
  <circle cx="471.4" cy="44.4" r="2.4" fill="#bae6fd" opacity="0.18"/>
  <circle cx="985.7" cy="44.4" r="2.4" fill="#bae6fd" opacity="0.18"/>
  <circle cx="300.0" cy="133.3" r="2.4" fill="#bae6fd" opacity="0.18"/>
  <circle cx="814.3" cy="133.3" r="2.4" fill="#bae6fd" opacity="0.18"/>
  <circle cx="642.9" cy="222.2" r="2.4" fill="#bae6fd" opacity="0.18"/>
  <circle cx="1157.1" cy="222.2" r="2.4" fill="#bae6fd" opacity="0.18"/>
  <circle cx="985.7" cy="311.1" r="2.4" fill="#bae6fd" opacity="0.18"/>
  <circle cx="814.3" cy="400.0" r="2.4" fill="#bae6fd" opacity="0.18"/>
  <circle cx="1157.1" cy="488.9" r="2.4" fill="#bae6fd" opacity="0.18"/>
  <circle cx="42.9" cy="577.8" r="2.4" fill="#bae6fd" opacity="0.18"/>
  <circle cx="985.7" cy="577.8" r="2.4" fill="#bae6fd" opacity="0.18"/>
  <circle cx="385.7" cy="666.7" r="2.4" fill="#bae6fd" opacity="0.18"/>
  <circle cx="214.3" cy="755.6" r="2.4" fill="#bae6fd" opacity="0.18"/>
  <g transform="translate(600 400)">

    <rect x="-150" y="60" width="46" height="60" rx="10" fill="#e0f2fe" opacity="0.55"/>
    <rect x="-80" y="30" width="46" height="90" rx="10" fill="#e0f2fe" opacity="0.67"/>
    <rect x="-10" y="-10" width="46" height="130" rx="10" fill="#e0f2fe" opacity="0.79"/>
    <rect x="60" y="-50" width="46" height="170" rx="10" fill="#e0f2fe" opacity="0.91"/>
    <path d="M -150 60 L -80 20 L -10 -40 L 60 -70 L 118 -110" fill="none" stroke="#67e8f9" stroke-width="6" stroke-linecap="round" stroke-linejoin="round"/>
    <path d="M 96 -122 l 30 -4 l 6 30 z" fill="#67e8f9"/>
    <path d="M -30 138 q 30 -26 60 0 q 30 -26 60 0" fill="none" stroke="#93c5fd" stroke-width="5" stroke-linecap="round" opacity="0.8"/>
  
  </g>
</svg>
