<svg viewBox="0 0 1200 800" xmlns="http://www.w3.org/2000/svg" role="img" aria-hidden="true">
  <defs>
    <linearGradient id="bg-auto-parts-shop-inventory-management" x1="0%" y1="0%" x2="100%" y2="100%" gradientTransform="rotate(53 0.5 0.5)">
      <stop offset="0%" stop-color="#0b1226"/>
      <stop offset="100%" stop-color="#1e3a8a"/>
    </linearGradient>
    <radialGradient id="glow-auto-parts-shop-inventory-management" cx="50%" cy="50%" r="55%">
      <stop offset="0%" stop-color="#38bdf8" stop-opacity="0.55"/>
      <stop offset="55%" stop-color="#22d3ee" stop-opacity="0.14"/>
      <stop offset="100%" stop-color="#22d3ee" stop-opacity="0"/>
    </radialGradient>
    
  </defs>
  <rect width="1200" height="800" fill="url(#bg-auto-parts-shop-inventory-management)"/>
  <circle cx="540" cy="380" r="330" fill="url(#glow-auto-parts-shop-inventory-management)"/>
  <circle cx="385.7" cy="44.4" r="2.4" fill="#bae6fd" opacity="0.18"/>
  <circle cx="900.0" cy="44.4" r="2.4" fill="#bae6fd" opacity="0.18"/>
  <circle cx="728.6" cy="133.3" r="2.4" fill="#bae6fd" opacity="0.18"/>
  <circle cx="1071.4" cy="222.2" r="2.4" fill="#bae6fd" opacity="0.18"/>
  <circle cx="900.0" cy="311.1" r="2.4" fill="#bae6fd" opacity="0.18"/>
  <circle cx="128.6" cy="488.9" r="2.4" fill="#bae6fd" opacity="0.18"/>
  <circle cx="1071.4" cy="488.9" r="2.4" fill="#bae6fd" opacity="0.18"/>
  <circle cx="471.4" cy="577.8" r="2.4" fill="#bae6fd" opacity="0.18"/>
  <circle cx="300.0" cy="666.7" r="2.4" fill="#bae6fd" opacity="0.18"/>
  <circle cx="128.6" cy="755.6" r="2.4" fill="#bae6fd" opacity="0.18"/>
  <circle cx="642.9" cy="755.6" r="2.4" fill="#bae6fd" opacity="0.18"/>
  <g transform="translate(600 400)">

    <path d="M -140 -30 L 0 -110 L 140 -30 Z" fill="#e0f2fe" opacity="0.9"/>
    <rect x="-120" y="-30" width="240" height="150" rx="6" fill="none" stroke="#93c5fd" stroke-width="5"/>
    <rect x="-24" y="30" width="48" height="90" rx="4" fill="none" stroke="#67e8f9" stroke-width="4"/>
    <line x1="0" y1="30" x2="0" y2="120" stroke="#67e8f9" stroke-width="3" opacity="0.6"/>
    <rect x="-96" y="10" width="46" height="46" rx="6" fill="#67e8f9" opacity="0.85"/>
    <rect x="60" y="10" width="46" height="46" rx="6" fill="none" stroke="#67e8f9" stroke-width="4"/>
    <rect x="128" y="70" width="44" height="40" rx="6" fill="#e0f2fe" opacity="0.8"/>
  
  </g>
</svg>
